<svg width="132" height="113" viewBox="0 0 132 113" fill="none" xmlns="http://www.w3.org/2000/svg">
<path fill-rule="evenodd" clip-rule="evenodd" d="M0 74.5522C0 73.8735 0.230083 73.215 0.652677 72.684L57.5992 1.13183C58.1684 0.416673 59.0325 0 59.9465 0H96.5646C98.3821 0 99.7865 1.60173 99.5642 3.40551C98.1481 14.8927 94.0983 51.5 100 51.5H116H132V112.5H74.5C67.3317 112.5 70.4403 96.5706 72.7757 84.604C73.6982 79.877 74.5 75.7682 74.5 73.5041C74.5 66.2286 42.2115 104.478 36.3928 111.43C35.82 112.114 34.9836 112.5 34.0912 112.5H3C1.34315 112.5 0 111.157 0 109.5V74.5522Z" fill="#155DFC"/>
</svg>
